<svg id="agora-favicon" width="32" height="32" viewBox="0 0 32 32" fill="none" xmlns="http://www.w3.org/2000/svg">
	<style>
		path { fill: #9A9350; }
		@media (prefers-color-scheme: dark) {
			path { fill: #FFF; }
		}
	</style>
	<path d="M15.2484 0.00012207V12.7019C15.2484 13.2254 14.6268 13.4911 14.259 13.1235L8.39697 7.2731L10.8539 0.757391C11.025 0.301831 11.4558 0.00012207 11.9378 0.00012207H15.2465H15.2484Z" fill="black" />
	<path d="M15.2482 17.2953V24.4304C15.2482 24.902 14.6915 25.1457 14.3551 24.822L5.271 16.0845L7.93644 9.01929L14.5636 15.6329C15.0023 16.0705 15.2502 16.6699 15.2502 17.2933L15.2482 17.2953Z" fill="black" />
	<path d="M15.2483 28.8011V32H1.1618C0.347418 32 -0.21321 31.1708 0.0779233 30.3996L4.80883 17.8657L14.6031 27.2846C15.0142 27.6802 15.2463 28.2277 15.2463 28.8031L15.2483 28.8011Z" fill="black" />
	<path d="M16.7516 0.00012207V12.7019C16.7516 13.2254 17.3732 13.4911 17.741 13.1235L23.603 7.2731L21.1461 0.757391C20.975 0.301831 20.5442 0.00012207 20.0622 0.00012207H16.7535H16.7516Z" fill="black" />
	<path d="M16.7518 17.2953V24.4304C16.7518 24.902 17.3085 25.1457 17.6449 24.822L26.729 16.0845L24.0636 9.01929L17.4364 15.6329C16.9977 16.0705 16.7498 16.6699 16.7498 17.2933L16.7518 17.2953Z" fill="black" />
	<path d="M16.7517 28.8011V32H30.8382C31.6526 32 32.2132 31.1708 31.9221 30.3996L27.1912 17.8657L17.3969 27.2846C16.9858 27.6802 16.7537 28.2277 16.7537 28.8031L16.7517 28.8011Z" fill="black" />
</svg>